<svg width="124" height="101" viewBox="0 0 124 101" fill="none" xmlns="http://www.w3.org/2000/svg">
<path d="M58.2027 50.2808C61.5006 47.1066 61.6009 41.8599 58.4266 38.5619C55.2524 35.264 50.0057 35.1637 46.7078 38.338L9.64652 74.0091C6.3486 77.1834 6.24832 82.4301 9.42255 85.728C12.5968 89.0259 17.8435 89.1262 21.1414 85.952L58.2027 50.2808Z" fill="#D8D8D8"/>
<mask id="mask0_46_140" style="mask-type:luminance" maskUnits="userSpaceOnUse" x="7" y="36" width="54" height="53">
<path d="M58.2027 50.2808C61.5006 47.1066 61.6009 41.8599 58.4266 38.5619C55.2524 35.264 50.0057 35.1637 46.7078 38.338L9.64652 74.0091C6.3486 77.1834 6.24832 82.4301 9.42255 85.728C12.5968 89.0259 17.8435 89.1262 21.1414 85.952L58.2027 50.2808Z" fill="#FFA0A0"/>
</mask>
<g mask="url(#mask0_46_140)">
<path d="M137.304 150.085L-61.6079 150.085L-61.6079 -48.8272L137.304 -48.8272L137.304 150.085Z" fill="#FFA0A0"/>
</g>
<path d="M14.3224 13.557C11.061 10.3453 5.81345 10.3856 2.60171 13.647C-0.610031 16.9084 -0.569772 22.1559 2.69163 25.3676L39.3425 61.4604C42.6039 64.6721 47.8514 64.6318 51.0631 61.3704C54.2748 58.109 54.2346 52.8615 50.9732 49.6498L14.3224 13.557Z" fill="#D8D8D8"/>
<mask id="mask1_46_140" style="mask-type:luminance" maskUnits="userSpaceOnUse" x="0" y="11" width="54" height="53">
<path d="M14.3224 13.557C11.061 10.3453 5.81345 10.3856 2.60171 13.647C-0.610031 16.9084 -0.569772 22.1559 2.69163 25.3676L39.3425 61.4604C42.6039 64.6721 47.8514 64.6318 51.0631 61.3704C54.2748 58.109 54.2346 52.8615 50.9732 49.6498L14.3224 13.557Z" fill="#FFA0A0"/>
</mask>
<g mask="url(#mask1_46_140)">
<path d="M111.972 -68.1885L117.299 130.652L-81.5418 135.979L-86.8684 -62.8619L111.972 -68.1885Z" fill="#DD2929"/>
</g>
<path d="M50.9911 50.6285L15.4116 86.208C12.175 89.4446 12.175 94.6923 15.4116 97.9289C18.6483 101.166 23.896 101.166 27.1326 97.9289L68.5726 56.489C71.8093 53.2523 71.8093 48.0046 68.5726 44.768L27.1326 3.32799C23.896 0.0913254 18.6483 0.0913254 15.4116 3.32799C12.175 6.56465 12.175 11.8123 15.4116 15.049L50.9911 50.6285Z" fill="black"/>
<mask id="mask2_46_140" style="mask-type:luminance" maskUnits="userSpaceOnUse" x="12" y="0" width="59" height="101">
<path d="M50.9911 50.6285L15.4116 86.208C12.175 89.4446 12.175 94.6923 15.4116 97.9289C18.6483 101.166 23.896 101.166 27.1326 97.9289L68.5726 56.489C71.8093 53.2523 71.8093 48.0046 68.5726 44.768L27.1326 3.32799C23.896 0.0913254 18.6483 0.0913254 15.4116 3.32799C12.175 6.56465 12.175 11.8123 15.4116 15.049L50.9911 50.6285Z" fill="#FF814A"/>
</mask>
<g mask="url(#mask2_46_140)">
<path d="M137.304 150.084L-61.6078 150.084L-61.6078 -48.8274L137.304 -48.8274L137.304 150.084Z" fill="#FF814A"/>
</g>
<path d="M66.7973 51.0756C63.4994 54.2499 63.3991 59.4966 66.5734 62.7945C69.7476 66.0924 74.9943 66.1927 78.2922 63.0185L115.353 27.3473C118.651 24.1731 118.752 18.9264 115.577 15.6285C112.403 12.3305 107.157 12.2303 103.859 15.4045L66.7973 51.0756Z" fill="#D8D8D8"/>
<mask id="mask3_46_140" style="mask-type:luminance" maskUnits="userSpaceOnUse" x="64" y="13" width="54" height="53">
<path d="M66.7973 51.0756C63.4994 54.2499 63.3991 59.4966 66.5734 62.7945C69.7476 66.0924 74.9943 66.1927 78.2922 63.0185L115.353 27.3473C118.651 24.1731 118.752 18.9264 115.577 15.6285C112.403 12.3305 107.157 12.2303 103.859 15.4045L66.7973 51.0756Z" fill="#FFA0E4"/>
</mask>
<g mask="url(#mask3_46_140)">
<path d="M-12.304 -48.7283L186.608 -48.7283L186.608 150.184L-12.304 150.184L-12.304 -48.7283Z" fill="#FFA0E4"/>
</g>
<path d="M84.3224 38.557C81.061 35.3453 75.8134 35.3856 72.6017 38.647C69.39 41.9084 69.4302 47.1559 72.6916 50.3676L109.342 86.4604C112.604 89.6721 117.851 89.6318 121.063 86.3704C124.275 83.109 124.235 77.8615 120.973 74.6498L84.3224 38.557Z" fill="#D8D8D8"/>
<mask id="mask4_46_140" style="mask-type:luminance" maskUnits="userSpaceOnUse" x="70" y="36" width="54" height="53">
<path d="M84.3224 38.557C81.061 35.3453 75.8134 35.3856 72.6017 38.647C69.39 41.9084 69.4302 47.1559 72.6916 50.3676L109.342 86.4604C112.604 89.6721 117.851 89.6318 121.063 86.3704C124.275 83.109 124.235 77.8615 120.973 74.6498L84.3224 38.557Z" fill="#FFA0A0"/>
</mask>
<g mask="url(#mask4_46_140)">
<path d="M181.972 -43.1885L187.299 155.652L-11.5418 160.979L-16.8684 -37.8619L181.972 -43.1885Z" fill="#CF29DD"/>
</g>
<path d="M74.0091 50.728L109.589 15.1485C112.825 11.9118 112.825 6.66416 109.589 3.4275C106.352 0.190834 101.104 0.190834 97.8676 3.4275L56.4276 44.8675C53.191 48.1041 53.191 53.3518 56.4276 56.5885L97.8676 98.0285C101.104 101.265 106.352 101.265 109.589 98.0285C112.825 94.7918 112.825 89.5441 109.589 86.3075L74.0091 50.728Z" fill="black"/>
<mask id="mask5_46_140" style="mask-type:luminance" maskUnits="userSpaceOnUse" x="54" y="1" width="59" height="100">
<path d="M74.0091 50.728L109.589 15.1485C112.825 11.9118 112.825 6.66416 109.589 3.4275C106.352 0.190834 101.104 0.190834 97.8676 3.4275L56.4276 44.8675C53.191 48.1041 53.191 53.3518 56.4276 56.5885L97.8676 98.0285C101.104 101.265 106.352 101.265 109.589 98.0285C112.825 94.7918 112.825 89.5441 109.589 86.3075L74.0091 50.728Z" fill="#DF17FF"/>
</mask>
<g mask="url(#mask5_46_140)">
<path d="M-12.3038 -48.728L186.608 -48.728L186.608 150.184L-12.3038 150.184L-12.3038 -48.728Z" fill="#DF17FF"/>
</g>
</svg>
